<?xml version="1.0" encoding="utf-8"?>
<!-- Generator: Adobe Illustrator 22.1.0, SVG Export Plug-In . SVG Version: 6.00 Build 0)  -->
<svg version="1.1" id="Layer_1" xmlns="http://www.w3.org/2000/svg" xmlns:xlink="http://www.w3.org/1999/xlink" x="0px" y="0px"
	 viewBox="0 0 94 94" style="enable-background:new 0 0 94 94;" xml:space="preserve">
<style type="text/css">
	.st0{fill-rule:evenodd;clip-rule:evenodd;fill:#D14A43;}
	.st1{fill-rule:evenodd;clip-rule:evenodd;fill:#FFFFFF;}
	.st2{fill-rule:evenodd;clip-rule:evenodd;fill:#48443E;}
	.st3{fill-rule:evenodd;clip-rule:evenodd;fill:#FF0000;}
	.st4{fill-rule:evenodd;clip-rule:evenodd;fill:#999999;}
	.st5{fill:#FFFFFF;}
</style>
<rect x="-0.1" y="0.1" class="st0" width="94" height="93.9"/>
<g>
	<path class="st1" d="M-0.1,62l26.5,9c-0.7,2.3-1.4,4.6-1.6,7.2c-0.3,5.5,2.2,8.9,5.1,11.5c2.6,2.3,6.1,3.7,10.1,4.1
		c2.7,0.3,5.6,0.2,8.8,0.1l44.9,0.1L24.1,52.5l-1.8-0.9C12.3,47.1,1.4,52.6-0.1,62z"/>
	<path class="st2" d="M55.8,35.7l-6.6,2.2l4-6.2L55.8,35.7L55.8,35.7z M59.7,41.7l-3.5-5.3l-4.4,1.4c-0.9,0.3-1.4,0.5-1.9,0.8
		c-0.3,0.2-0.5,0.5-0.3,1l-2.5,1.3l-2,3.1c1.4-0.2,2.9-0.2,4.2-0.2c0.3,0,0.5,0.3,0.6,0.5c-2.3,1.6-5.1,2.4-7.5,3.9l-7.1,10.9
		l0.8,0.4c9.1-4.4,18.9-7.5,29.1-9.7l-2.2-3.5c-6.4,0.7-12.5,2.5-18.5,4.3h-0.6l0.2-0.4C48.5,46.7,54.2,44,59.7,41.7L59.7,41.7z
		 M29.4,70.5c-2,4.7-4,11.2-0.5,15.8c3.2,4.9,9.5,7.2,16,6.5c6.5-0.7,12-5.5,13.5-11l35.4,12.2L43,94c-1.4,0-2.6,0-3.8-0.2
		c-3-0.6-6-1.6-8.3-3.4l-0.9,0.2c-2.9,1-5.7,2-8.4,3.3h-8.8l9.2-14.1l2.8-1.1c0.2-2.7,0.9-5.1,1.7-7.7L-0.1,62
		c0.4-4.7,3.9-8.9,8.8-10.9c5.3-2.2,12.1-1.2,16.5,2.2C30.8,57.7,31.6,64.3,29.4,70.5L29.4,70.5z M26.7,70c2.3-6.2,2.6-10.5-2-15.6
		c-3.5-3.6-9.9-4.5-14.9-2.8c-4.3,1.5-7.5,5.5-8,9.7L26.7,70L26.7,70z M71.7,53.6c-1.3,0.5-2.8,0.8-4.1,1.2
		c-8.1,2.3-16,5.5-23.2,9.9l-2.2-1.3c8.5-4.2,17.6-7.2,26.9-9.7c0.8-0.1,1.4-0.4,2.2-0.5L71.7,53.6L71.7,53.6z M72.6,61l9.2-1.7
		l0.7,2l-18.1,6l-9.6,3.5l-2.4-1.4c4.7-1.8,9.9-2.7,14.2-5.3c0-0.1-0.1-0.1-0.2-0.2c-5.8,0.8-11.3,2.6-16.9,3.8l-3.8-2.2l0.4-0.3
		l15.4-4.6c3.1-0.8,6.2-1.6,9.3-2.2L72.6,61L72.6,61z M92.1,69.7l-0.3-6.3c-7.9,1.8-15.6,4-23.2,6.5c-1,0.2-0.6,1.2-1.1,1.8
		c-2.2,0.8-4.6,1.6-6.7,2.7l7.2,4.3c6-1.6,12-3.4,18-4.9l0.9-0.5l-0.6-2L92.1,69.7L92.1,69.7z M92.6,77.7l-0.1-1.8
		c-7.7,0.4-15.1,2-22,4.1l12.2,7.3c2.2-0.3,4.8-0.4,7.1-0.6l-4.3-6.4c-0.9-0.1-2.1,0.2-2.8-0.3C85.8,78.8,89.1,78.1,92.6,77.7
		L92.6,77.7z M90.8,93.4l-30.8-9.8c-1.9,4.1-6.1,7.9-10.7,9.2l0.1,0.1L90.8,93.4L90.8,93.4z M28.2,88c-0.3-0.3-0.6-0.7-0.8-1
		c-2.1,1-4.4,2.3-6.4,3.6c0,0.3-0.7,0.3-0.3,0.6C23.1,90.2,25.8,89.1,28.2,88z"/>
</g>
<path class="st1" d="M6.3,2.4c-0.5-1.2-1.7-2-3-2C1,0.5-0.1,2.4-0.1,3.8c0,1.5,1.1,3.4,3.4,3.4c1.4,0,2.4-0.8,3-1.9H4.8
	C4.4,5.8,3.9,6,3.3,6C2,6,1.1,5,1.1,3.8c0-1.1,0.9-2.2,2.2-2.2C4,1.6,4.6,2,4.9,2.4H6.3L6.3,2.4z M10.5,0.5C8.6,0.5,7.1,2,7.1,3.8
	c0,1.9,1.5,3.3,3.4,3.3c1.9,0,3.4-1.5,3.4-3.3C13.9,2,12.4,0.5,10.5,0.5L10.5,0.5z M10.5,6C9.2,6,8.3,5,8.3,3.8
	c0-1.2,0.9-2.2,2.2-2.2c1.3,0,2.2,1,2.2,2.2C12.7,5,11.8,6,10.5,6L10.5,6z M16.4,3.1V0.6h-1.2V7h1.2V4.3h1c0.3,1.9,1.9,2.8,3.3,2.8
	c1.9,0,3.4-1.5,3.4-3.3c0-1.9-1.5-3.4-3.4-3.4c-1.5,0-3,1-3.3,2.7H16.4L16.4,3.1z M20.8,6c-1.2,0-2.2-1-2.2-2.2
	c0-1.2,0.9-2.2,2.2-2.2c1.2,0,2.2,1,2.2,2.2C23,5,22,6,20.8,6L20.8,6z M25.5,2.2h1.2c0-0.4,0.4-0.6,0.8-0.6c0.5,0,0.8,0.3,0.8,0.8
	c0,0.5-0.3,0.7-0.8,0.7h-0.5v1.2h0.6c0.6,0,0.9,0.4,0.9,0.9c0,0.4-0.3,0.8-1,0.8c-0.8,0-1-0.6-1-0.9h-1.2c-0.1,1.3,0.9,2.1,2.1,2.1
	c1.3,0,2.2-0.7,2.2-1.9c0-0.9-0.5-1.4-1.1-1.6c0.5-0.2,0.9-0.7,0.9-1.4c0-1.1-0.8-1.8-1.9-1.8C26.1,0.5,25.5,1.3,25.5,2.2L25.5,2.2z
	 M4.1,10.8H3L0.6,16H0v2.4h1.2v-1.2h4.7v1.2h1.2V16H6.5L4.1,10.8L4.1,10.8z M2,16l1.6-3.6L5.2,16H2L2,16z M8.1,10.8v6.5h1.2l2.9-4.5
	v4.5h1.2v-6.5h-1.2l-2.9,4.5v-4.5H8.1L8.1,10.8z M14.9,12.4h1.2c0-0.4,0.4-0.6,0.8-0.6c0.5,0,0.8,0.3,0.8,0.8c0,0.5-0.3,0.7-0.8,0.7
	h-0.5v1.2h0.6c0.6,0,0.9,0.4,0.9,0.9c0,0.4-0.3,0.8-1,0.8c-0.8,0-1-0.6-1-0.9h-1.2c-0.1,1.3,0.9,2.1,2.1,2.1c1.3,0,2.2-0.7,2.2-1.9
	c0-0.9-0.5-1.4-1.1-1.6c0.5-0.2,0.9-0.7,0.9-1.4c0-1.1-0.8-1.8-1.9-1.8C15.5,10.6,14.9,11.5,14.9,12.4L14.9,12.4z M19.6,17.2h1.3
	l0.7-1.7h2.4l0.7,1.7h1.3l-2.7-6.5h-1L19.6,17.2L19.6,17.2z M22,14.4l0.7-1.9l0.7,1.9H22L22,14.4z M26.8,10.8v6.5H28l2.9-4.5v4.5
	h1.2v-6.5h-1.2L28,15.3v-4.5H26.8L26.8,10.8z M27.8,9.2c0.1,0.7,0.7,1.2,1.6,1.2c0.9,0,1.5-0.5,1.6-1.2h-1c0,0.3-0.3,0.4-0.6,0.4
	c-0.3,0-0.5-0.1-0.6-0.4H27.8L27.8,9.2z M34.2,17.2h1.2v-2.7h2.4v2.7h1.2v-6.5h-1.2v2.6h-2.4v-2.6h-1.2V17.2L34.2,17.2z M41,17.2
	h3.5V16h-2.3v-1.5h2.2v-1.2h-2.2v-1.5h2.3v-1.2H41V17.2L41,17.2z M46.4,17.2h1.2v-2.4h0.6c1.9,0,2.3-1.2,2.3-2c0-0.6-0.2-2-2.3-2
	h-1.8V17.2L46.4,17.2z M47.6,11.9h0.7c0.3,0,1,0.1,1,0.8c0,0.8-0.7,0.8-1,0.8h-0.7V11.9L47.6,11.9z M54.8,10.6
	c-1.9,0-3.4,1.5-3.4,3.4c0,1.9,1.5,3.3,3.4,3.3c1.9,0,3.4-1.5,3.4-3.3C58.2,12.2,56.7,10.6,54.8,10.6L54.8,10.6z M54.8,16.2
	c-1.2,0-2.2-1-2.2-2.2c0-1.2,0.9-2.2,2.2-2.2c1.3,0,2.2,1,2.2,2.2C57,15.2,56,16.2,54.8,16.2L54.8,16.2z M59.5,17.2h1.6
	c2.1,0,2.6-1,2.6-2c0-0.7-0.4-1.3-1.1-1.6c0.2-0.1,0.7-0.4,0.7-1.2c0-1.7-1.8-1.7-2.2-1.7h-1.6V17.2L59.5,17.2z M60.7,16v-1.6h0.8
	c0.9,0,1,0.6,1,0.8c0,0.8-0.9,0.8-1,0.8H60.7L60.7,16z M60.7,13.2v-1.3h0.6c0.3,0,0.8,0,0.8,0.7c0,0.2-0.1,0.7-0.8,0.7H60.7
	L60.7,13.2z M5.8,20.9H4.5L3,24.4l-1.7-3.4h-1.4l2.5,4.8l-0.8,1.6h1.3L5.8,20.9L5.8,20.9z M6.9,27.4h1.2v-2.8l2,2.8h1.4l-2.4-3.3
	l2.4-3.2h-1.4l-2,2.8v-2.8H6.9V27.4L6.9,27.4z M12.7,27.4h1.2V25h0.6c1.9,0,2.3-1.2,2.3-2c0-0.6-0.2-2-2.3-2h-1.8V27.4L12.7,27.4z
	 M13.9,22.1h0.7c0.3,0,1,0.1,1,0.8c0,0.8-0.7,0.8-1,0.8h-0.7V22.1L13.9,22.1z M16.8,27.4l2.7-6.5h1l2.7,6.5h-1.3l-0.7-1.7h-2.4
	l-0.7,1.7H16.8L16.8,27.4z M19.2,24.6h1.5l-0.7-1.9L19.2,24.6L19.2,24.6z M24.2,20.9v6.5h1.2l2.9-4.5v4.5h1.2v-6.5h-1.2l-2.9,4.5
	v-4.5H24.2L24.2,20.9z M31.4,27.4h1.2v-2.7H35v2.7h1.2v-6.5H35v2.6h-2.4v-2.6h-1.2V27.4L31.4,27.4z M38.2,20.9v6.5h2.2
	c1.3,0,2.1-0.8,2.1-2c0-1-0.5-2-2.1-2h-1v-2.5H38.2L38.2,20.9z M39.4,24.6h1c0.5,0,0.9,0.3,0.9,0.8c0,0.5-0.4,0.8-0.9,0.8h-1V24.6
	L39.4,24.6z M43.2,27.4h1.2v-6.5h-1.2V27.4z"/>
<rect x="-0.1" y="0.1" class="st3" width="94" height="93.9"/>
<path class="st4" d="M53.2,26.2l-5.9,9.8c-4.7-2.8-10.2-4.5-16.1-4.5C14,31.4-0.1,45.5-0.1,62.8c0,11.4,6.1,21.4,15.2,26.9l-2.7,4.5
	h18.8c0,0,0,0,0,0s0,0,0,0H94L53.2,26.2z"/>
<path class="st0" d="M31.3,31.4c5.9,0,11.4,1.6,16.1,4.5L31.3,62.8l28,14c-5.2,10.3-15.8,17.3-28,17.3C14,94.1-0.1,80-0.1,62.8
	C-0.1,45.5,14,31.4,31.3,31.4z"/>
<path class="st1" d="M31.2,32.1c5.7,0,11.1,1.6,15.6,4.4l0.1,0.2l-15.6,26L57.6,76c-5,9.5-15,15.9-26.4,15.9
	C14.8,91.9,1.3,78.5,1.3,62S14.8,32.1,31.2,32.1z"/>
<g>
	<path class="st5" d="M4.4,3.3c-0.5,0-0.9,0.2-1.2,0.6C2.9,4.3,2.8,4.8,2.8,5.5c0,1.5,0.5,2.2,1.6,2.2c0.5,0,1-0.1,1.7-0.3v1.2
		C5.5,8.8,4.9,8.9,4.3,8.9c-1,0-1.7-0.3-2.2-0.9C1.6,7.4,1.3,6.6,1.3,5.5c0-0.7,0.1-1.3,0.4-1.8C2,3.2,2.3,2.8,2.8,2.6
		c0.5-0.3,1-0.4,1.6-0.4c0.6,0,1.3,0.2,1.9,0.5L5.9,3.7C5.6,3.6,5.4,3.5,5.1,3.4C4.9,3.4,4.6,3.3,4.4,3.3z"/>
	<path class="st5" d="M12.6,8.8h-1.4V3.4H8.8v5.4H7.5V2.3h5.2V8.8z"/>
	<path class="st5" d="M14.3,8.8V2.3h1.4v6.5H14.3z"/>
	<path class="st5" d="M22.5,8.8h-1.4V3.4h-1.6L19.4,4c-0.2,1.5-0.3,2.6-0.5,3.2c-0.1,0.6-0.3,1-0.6,1.3c-0.3,0.3-0.6,0.4-1.1,0.4
		c-0.3,0-0.5,0-0.7-0.1V7.6c0.2,0.1,0.3,0.1,0.5,0.1c0.2,0,0.3-0.1,0.4-0.2s0.2-0.4,0.3-0.8c0.1-0.4,0.2-1,0.3-1.9
		c0.1-0.9,0.3-1.7,0.3-2.5h4.1V8.8z"/>
	<path class="st5" d="M29.4,8.8h-1.6l-2.4-3.3v3.3h-1.4V2.3h1.4v3.2l2.3-3.2h1.5l-2.4,3.1L29.4,8.8z"/>
	<path class="st5" d="M34.3,8.8l-0.5-1.6h-2.4l-0.5,1.6h-1.5l2.3-6.6h1.7l2.3,6.6H34.3z M33.5,6.1c-0.4-1.4-0.7-2.2-0.7-2.4
		s-0.1-0.3-0.1-0.4c-0.1,0.4-0.4,1.3-0.8,2.8H33.5z"/>
	<path class="st5" d="M0.8,17.9h0.5c0.4-0.9,0.8-1.7,1-2.6s0.4-1.8,0.6-2.8h3.8v5.4h0.9v3.1H6.3V19H2.2v1.9H0.8V17.9z M4,13.6
		c-0.1,0.7-0.3,1.4-0.5,2.2c-0.2,0.8-0.5,1.4-0.7,2.1h2.6v-4.2H4z"/>
	<path class="st5" d="M8.6,12.5h1.2v3.2l0,0.8l0,1h0l3-5h1.7V19h-1.2v-3.1c0-0.4,0-1,0.1-1.9h0l-3,5H8.6V12.5z"/>
	<path class="st5" d="M20.7,14c0,0.4-0.1,0.8-0.4,1c-0.3,0.3-0.7,0.4-1.2,0.5v0c0.6,0.1,1.1,0.2,1.4,0.5c0.3,0.3,0.5,0.6,0.5,1.1
		c0,0.6-0.2,1.1-0.7,1.4c-0.5,0.3-1.2,0.5-2,0.5c-1,0-1.7-0.1-2.3-0.4v-1.2c0.3,0.1,0.6,0.2,1,0.3c0.4,0.1,0.7,0.1,1.1,0.1
		c1.1,0,1.6-0.3,1.6-1c0-0.3-0.2-0.5-0.5-0.7s-0.9-0.2-1.6-0.2h-0.6v-1.1h0.5c0.7,0,1.2-0.1,1.5-0.2c0.3-0.1,0.5-0.3,0.5-0.7
		c0-0.2-0.1-0.4-0.3-0.5c-0.2-0.1-0.5-0.2-0.9-0.2c-0.6,0-1.2,0.2-1.8,0.5l-0.6-0.9c0.4-0.2,0.8-0.4,1.2-0.5s0.9-0.2,1.4-0.2
		c0.7,0,1.3,0.1,1.7,0.4C20.4,13.1,20.7,13.5,20.7,14z"/>
	<path class="st5" d="M26.1,19l-0.5-1.6h-2.4L22.7,19h-1.5l2.3-6.6h1.7l2.3,6.6H26.1z M25.3,16.3c-0.4-1.4-0.7-2.2-0.7-2.4
		s-0.1-0.3-0.1-0.4c-0.1,0.4-0.4,1.3-0.8,2.8H25.3z"/>
	<path class="st5" d="M28.4,12.5h1.2v3.2l0,0.8l0,1h0l3-5h1.7V19H33v-3.1c0-0.4,0-1,0.1-1.9h0l-3,5h-1.7V12.5z M33.5,10.4
		c-0.1,0.6-0.3,1-0.6,1.2C32.5,11.8,32,12,31.3,12c-0.7,0-1.2-0.1-1.6-0.4c-0.3-0.2-0.5-0.7-0.6-1.2h1.2c0,0.3,0.1,0.5,0.2,0.6
		c0.1,0.1,0.4,0.2,0.7,0.2c0.3,0,0.5-0.1,0.7-0.2c0.1-0.1,0.2-0.3,0.3-0.6H33.5z"/>
	<path class="st5" d="M41.3,19h-1.4v-2.8h-2.6V19h-1.4v-6.5h1.4V15h2.6v-2.6h1.4V19z"/>
	<path class="st5" d="M46.7,19h-3.8v-6.5h3.8v1.1h-2.4v1.4h2.2v1.1h-2.2v1.7h2.4V19z"/>
	<path class="st5" d="M52.6,14.5c0,0.7-0.2,1.2-0.7,1.6s-1.1,0.6-1.9,0.6h-0.6V19h-1.4v-6.5h2.1c0.8,0,1.4,0.2,1.8,0.5
		C52.4,13.3,52.6,13.8,52.6,14.5z M49.4,15.6h0.5c0.4,0,0.7-0.1,1-0.3c0.2-0.2,0.3-0.4,0.3-0.7c0-0.3-0.1-0.6-0.3-0.7
		s-0.5-0.2-0.8-0.2h-0.6V15.6z"/>
	<path class="st5" d="M53.8,19v-6.5h1.4V19H53.8z"/>
	<path class="st5" d="M56.8,12.5h2c0.9,0,1.6,0.1,2,0.4c0.4,0.3,0.6,0.7,0.6,1.3c0,0.4-0.1,0.7-0.3,1c-0.2,0.3-0.4,0.4-0.7,0.5v0
		c0.4,0.1,0.7,0.3,0.9,0.5c0.2,0.3,0.3,0.6,0.3,1c0,0.6-0.2,1.1-0.6,1.4c-0.4,0.3-1,0.5-1.8,0.5h-2.4V12.5z M58.2,15.1H59
		c0.4,0,0.6-0.1,0.8-0.2c0.2-0.1,0.3-0.3,0.3-0.6c0-0.3-0.1-0.4-0.3-0.5c-0.2-0.1-0.5-0.2-0.9-0.2h-0.7V15.1z M58.2,16.2v1.7h0.9
		c0.4,0,0.7-0.1,0.8-0.2s0.3-0.4,0.3-0.7c0-0.5-0.4-0.8-1.2-0.8H58.2z"/>
	<path class="st5" d="M6.8,22.7l-2,4.6c-0.3,0.6-0.5,1-0.7,1.3c-0.2,0.3-0.5,0.4-0.8,0.6c-0.3,0.1-0.7,0.2-1.1,0.2
		c-0.4,0-0.7,0-1-0.1V28c0.3,0.1,0.6,0.2,1,0.2c0.2,0,0.4-0.1,0.6-0.2c0.2-0.1,0.3-0.3,0.4-0.6l-2.3-4.7h1.5l1.6,3.6h0L4,26.1
		l1.3-3.4H6.8z"/>
	<path class="st5" d="M12.9,29.2h-1.6L9,25.9v3.3H7.6v-6.5H9v3.2l2.3-3.2h1.5l-2.4,3.1L12.9,29.2z"/>
	<path class="st5" d="M18.3,24.7c0,0.7-0.2,1.2-0.7,1.6s-1.1,0.6-1.9,0.6h-0.6v2.3h-1.4v-6.5h2.1c0.8,0,1.4,0.2,1.8,0.5
		C18.1,23.6,18.3,24.1,18.3,24.7z M15.1,25.8h0.5c0.4,0,0.7-0.1,1-0.3c0.2-0.2,0.3-0.4,0.3-0.7c0-0.3-0.1-0.6-0.3-0.7
		s-0.5-0.2-0.8-0.2h-0.6V25.8z"/>
	<path class="st5" d="M23.5,29.2L23,27.7h-2.4l-0.5,1.6h-1.5l2.3-6.6h1.7l2.3,6.6H23.5z M22.7,26.5c-0.4-1.4-0.7-2.2-0.7-2.4
		s-0.1-0.3-0.1-0.4c-0.1,0.4-0.4,1.3-0.8,2.8H22.7z"/>
	<path class="st5" d="M25,21.5c0-0.2,0.1-0.3,0.2-0.4c0.1-0.1,0.3-0.2,0.5-0.2c0.2,0,0.4,0.1,0.5,0.2c0.1,0.1,0.2,0.3,0.2,0.4
		c0,0.2-0.1,0.3-0.2,0.4c-0.1,0.1-0.3,0.2-0.5,0.2c-0.2,0-0.3-0.1-0.5-0.2C25,21.8,25,21.6,25,21.5z M25.8,29.2v-6.5h1.4v6.5H25.8z
		 M26.8,21.5c0-0.2,0.1-0.4,0.2-0.5s0.3-0.1,0.4-0.1c0.2,0,0.3,0.1,0.5,0.2c0.1,0.1,0.2,0.3,0.2,0.4c0,0.2-0.1,0.3-0.2,0.4
		c-0.1,0.1-0.3,0.2-0.5,0.2c-0.2,0-0.3,0-0.4-0.1C26.8,21.8,26.8,21.7,26.8,21.5z"/>
	<path class="st5" d="M34.2,29.2h-1.4v-2.8h-2.6v2.8h-1.4v-6.5h1.4v2.6h2.6v-2.6h1.4V29.2z"/>
	<path class="st5" d="M35.8,22.7h1.2v3.2l0,0.8l0,1h0l3-5h1.7v6.5h-1.2v-3.1c0-0.4,0-1,0.1-1.9h0l-3,5h-1.7V22.7z"/>
</g>
<g>
	<path class="st5" d="M92.6,53.3v1.6l-2.5,1.5l2.5,1.5v1.5l-3.4-2.2l-3.2,2v-1.5l2.4-1.4L86.1,55v-1.5l3.2,2.1L92.6,53.3z"/>
	<path class="st5" d="M92.6,43.7l-1.6,0.5v2.4l1.6,0.5v1.5l-6.6-2.3v-1.7l6.6-2.3V43.7z M89.9,44.5c-1.4,0.4-2.2,0.7-2.4,0.7
		c-0.2,0.1-0.3,0.1-0.4,0.1c0.4,0.1,1.3,0.4,2.8,0.8V44.5z"/>
	<path class="st5" d="M88.1,32.2c0.7,0,1.2,0.2,1.6,0.7s0.6,1.1,0.6,1.9v0.6h2.3v1.4h-6.5v-2.1c0-0.8,0.2-1.4,0.5-1.8
		S87.4,32.2,88.1,32.2z M89.2,35.3v-0.5c0-0.4-0.1-0.7-0.3-1c-0.2-0.2-0.4-0.3-0.7-0.3c-0.3,0-0.6,0.1-0.7,0.3s-0.2,0.5-0.2,0.8v0.6
		H89.2z"/>
	<path class="st5" d="M92.6,20.8v1.6l-3.3,2.4h3.3v1.4h-6.5v-1.4h3.2l-3.2-2.3V21l3.1,2.4L92.6,20.8z"/>
	<path class="st5" d="M92.6,15.3h-6.5v-1.4h6.5V15.3z"/>
	<path class="st5" d="M86.1,7.5v-2c0-0.9,0.1-1.6,0.4-2c0.3-0.4,0.7-0.6,1.3-0.6c0.4,0,0.7,0.1,1,0.3c0.3,0.2,0.4,0.4,0.5,0.7h0
		c0.1-0.4,0.3-0.7,0.5-0.9s0.6-0.3,1-0.3c0.6,0,1.1,0.2,1.4,0.6c0.3,0.4,0.5,1,0.5,1.8v2.4H86.1z M88.7,6.1V5.3
		c0-0.4-0.1-0.6-0.2-0.8c-0.1-0.2-0.3-0.3-0.6-0.3c-0.3,0-0.4,0.1-0.5,0.3c-0.1,0.2-0.2,0.5-0.2,0.9v0.7H88.7z M89.8,6.1h1.7V5.2
		c0-0.4-0.1-0.7-0.2-0.8c-0.1-0.2-0.4-0.3-0.7-0.3c-0.5,0-0.8,0.4-0.8,1.2V6.1z"/>
</g>
</svg>
